<svg xmlns="http://www.w3.org/2000/svg" viewBox="0 0 32 32">
  <rect width="32" height="32" rx="6" fill="#0B1120"/>
  <path fill="#F472B6" d="M15.604 24.008Q14.02 24.008 12.733 23.293Q11.446 22.578 10.687 21.203Q9.928 19.828 9.928 17.848L9.928 14.152Q9.928 11.182 11.6 9.587Q13.272 7.992 16.132 7.992Q18.97 7.992 20.521 9.499Q22.072 11.006 22.072 13.58L22.072 13.668L19.212 13.668L19.212 13.492Q19.212 12.678 18.871 12.018Q18.53 11.358 17.848 10.973Q17.166 10.588 16.132 10.588Q14.592 10.588 13.712 11.534Q12.832 12.48 12.832 14.108L12.832 17.892Q12.832 19.498 13.712 20.477Q14.592 21.456 16.176 21.456Q17.76 21.456 18.486 20.62Q19.212 19.784 19.212 18.508L19.212 18.288L15.56 18.288L15.56 15.824L22.072 15.824L22.072 23.7L19.388 23.7L19.388 22.226L18.992 22.226Q18.838 22.6 18.497 23.018Q18.156 23.436 17.474 23.722Q16.792 24.008 15.604 24.008Z"/>
</svg>
